<?xml version="1.0" encoding="iso-8859-1"?>
<!-- Generator: Adobe Illustrator 19.0.0, SVG Export Plug-In . SVG Version: 6.00 Build 0)  -->
<svg version="1.1" id="Layer_1" xmlns="http://www.w3.org/2000/svg" xmlns:xlink="http://www.w3.org/1999/xlink" x="0px" y="0px"
	 viewBox="0 0 512 512" style="enable-background:new 0 0 512 512;" xml:space="preserve">
<g transform="translate(0 1)">
	<g>
		<path style="fill:#FFE100;" d="M358.53,67.267h-128c-14.507,0-25.6-11.093-25.6-25.6s11.093-25.6,25.6-25.6h128
			c14.507,0,25.6,11.093,25.6,25.6S373.036,67.267,358.53,67.267"/>
		<path style="fill:#FFE100;" d="M475.436,458.947L349.996,203.8V58.733h-25.6V203.8L450.69,458.947
			c7.68,20.48-5.12,43.52-24.747,43.52h21.333C469.463,502.467,484.823,479.427,475.436,458.947"/>
	</g>
	<path style="fill:#FFFFFF;" d="M70.956,458.947L196.396,203.8V58.733h-25.6V203.8L45.356,458.947
		c-9.387,20.48,5.973,43.52,29.013,43.52h21.333C76.076,502.467,62.423,479.427,70.956,458.947"/>
	<path style="fill:#FFA800;" d="M449.836,458.947L324.396,203.8V58.733h-25.6V203.8L425.09,458.947
		c7.68,20.48-5.12,43.52-24.747,43.52h21.333C443.863,502.467,459.223,479.427,449.836,458.947"/>
	<path style="fill:#FFE100;" d="M70.956,458.947L187.863,203.8V58.733H307.33V203.8l116.907,255.147
		c7.68,20.48-5.12,43.52-24.747,43.52H95.703C76.076,502.467,62.423,479.427,70.956,458.947"/>
	<path style="fill:#63D3FD;" d="M424.236,458.947L409.73,408.6c-11.947-4.267-24.747-15.36-34.987-25.6
		c-32.427-36.693-78.507-43.52-111.787-8.533l0,0c-33.28,34.987-93.867,11.093-126.293-25.6c-7.68-7.68-2.56-13.653-11.093-17.92
		l-54.613,128c-8.533,20.48,5.12,43.52,24.747,43.52h304.64C419.116,502.467,432.77,479.427,424.236,458.947"/>
	<path style="fill:#FFFFFF;" d="M70.956,458.947l52.053-120.32c-4.267-2.56-9.387-5.12-14.507-6.827L45.356,458.947
		c-9.387,20.48,5.973,43.52,28.16,43.52H94.85C76.076,503.32,62.423,479.427,70.956,458.947"/>
	<path style="fill:#3DB9F9;" d="M449.836,458.947L431.063,421.4c-13.653-4.267-27.307-11.093-38.4-21.333
		c-25.6-25.6-58.027-44.373-88.747-42.667c24.747,1.707,50.347,10.24,70.827,33.28c10.24,10.24,21.333,12.8,34.133,17.067
		l16.213,50.347c7.68,20.48-5.12,43.52-24.747,43.52h21.333C443.863,503.32,459.223,479.427,449.836,458.947"/>
	<path style="fill:#FFFFFF;" d="M281.73,58.733H162.263c-14.507,0-25.6-11.093-25.6-25.6s11.093-25.6,25.6-25.6H281.73
		c14.507,0,25.6,11.093,25.6,25.6S296.236,58.733,281.73,58.733"/>
	<path style="fill:#FFA800;" d="M332.93,58.733h-128c-14.507,0-25.6-11.093-25.6-25.6s11.093-25.6,25.6-25.6h128
		c14.507,0,25.6,11.093,25.6,25.6S347.436,58.733,332.93,58.733"/>
	<path style="fill:#FFE100;" d="M307.33,58.733H187.863c-14.507,0-25.6-11.093-25.6-25.6s11.093-25.6,25.6-25.6H307.33
		c14.507,0,25.6,11.093,25.6,25.6S321.836,58.733,307.33,58.733"/>
	<path d="M421.676,511H73.516c-13.653,0-25.6-6.827-33.28-17.92s-8.533-25.6-2.56-37.547l0,0l124.587-253.44V58.733
		c0-5.12,3.413-8.533,8.533-8.533h153.6c5.12,0,8.533,3.413,8.533,8.533v143.36l124.587,253.44c5.973,12.8,4.267,26.453-2.56,38.4
		S435.33,511,421.676,511z M53.036,462.36c-3.413,6.827-2.56,14.507,1.707,21.333s11.093,10.24,18.773,10.24h347.307
		c7.68,0,14.507-3.413,18.773-10.24s5.12-14.507,1.707-21.333L316.716,207.213c-0.853-0.853-0.853-1.707-0.853-3.413V67.267H179.33
		V203.8c0,1.707,0,2.56-0.853,3.413L53.036,462.36z"/>
	<path d="M332.93,67.267H162.263c-18.773,0-34.133-15.36-34.133-34.133S143.49-1,162.263-1H332.93
		c18.773,0,34.133,15.36,34.133,34.133S351.703,67.267,332.93,67.267z M162.263,16.067c-9.387,0-17.067,7.68-17.067,17.067
		s7.68,17.067,17.067,17.067H332.93c9.387,0,17.067-7.68,17.067-17.067s-7.68-17.067-17.067-17.067H162.263z"/>
	<path d="M239.063,255h-51.2c-5.12,0-8.533-3.413-8.533-8.533c0-5.12,3.413-8.533,8.533-8.533h51.2c5.12,0,8.533,3.413,8.533,8.533
		C247.596,251.587,244.183,255,239.063,255z"/>
	<path d="M204.93,323.267h-51.2c-5.12,0-8.533-3.413-8.533-8.533c0-5.12,3.413-8.533,8.533-8.533h51.2
		c5.12,0,8.533,3.413,8.533,8.533C213.463,319.853,210.05,323.267,204.93,323.267z"/>
	<path d="M196.396,289.133h-25.6c-5.12,0-8.533-3.413-8.533-8.533c0-5.12,3.413-8.533,8.533-8.533h25.6
		c5.12,0,8.533,3.413,8.533,8.533S201.516,289.133,196.396,289.133z"/>
	<path d="M421.676,511H73.516c-13.653,0-25.6-6.827-33.28-17.92s-8.533-25.6-2.56-37.547l63.147-128
		c1.707-4.267,5.973-5.973,10.24-4.267c11.093,4.267,22.187,11.093,30.72,18.773c32.427,32.427,81.92,58.027,116.907,25.6
		l0.853-0.853c43.52-39.253,102.4-10.24,139.093,26.453c9.387,8.533,21.333,15.36,34.987,18.773c2.56,0.853,4.267,2.56,5.12,4.267
		l18.773,37.547l0,0c5.12,11.947,4.267,26.453-2.56,37.547C448.13,502.467,435.33,511,421.676,511z M111.916,342.04l-58.88,120.32
		c-3.413,6.827-2.56,14.507,1.707,21.333s11.093,10.24,18.773,10.24h347.307c7.68,0,14.507-3.413,18.773-10.24
		s5.12-14.507,1.707-21.333l-17.067-34.133c-14.507-5.12-27.307-11.947-38.4-21.333c-32.427-32.427-81.92-58.027-116.907-25.6
		l-0.853,0.853c-43.52,39.253-102.4,10.24-139.093-26.453C125.57,349.72,118.743,346.307,111.916,342.04z"/>
</g>
<g>
</g>
<g>
</g>
<g>
</g>
<g>
</g>
<g>
</g>
<g>
</g>
<g>
</g>
<g>
</g>
<g>
</g>
<g>
</g>
<g>
</g>
<g>
</g>
<g>
</g>
<g>
</g>
<g>
</g>
</svg>
